<?xml version="1.0" encoding="iso-8859-1"?>
<!-- Generator: Adobe Illustrator 16.0.0, SVG Export Plug-In . SVG Version: 6.00 Build 0)  -->
<!DOCTYPE svg PUBLIC "-//W3C//DTD SVG 1.1//EN" "http://www.w3.org/Graphics/SVG/1.1/DTD/svg11.dtd">
<svg version="1.1" id="Capa_1" xmlns="http://www.w3.org/2000/svg" xmlns:xlink="http://www.w3.org/1999/xlink" x="0px" y="0px"
	 width="792.002px" height="792.002px" viewBox="0 0 792.002 792.002" style="enable-background:new 0 0 792.002 792.002;"
	 xml:space="preserve">
<g>
	<g>
		<path d="M595.003,721.085c16.878,0,30.09-2.953,30.646-3.078l14.246-3.227V382.609c0-59.874-23.315-116.161-65.646-158.492
			c-12.539-12.539-26.314-23.401-41.031-32.486c12.609-18.961,22.29-41.25,26.809-61.926c9.469-43.38-3.806-77.895-36.418-94.702
			c-10.636-5.482-21.694-8.255-32.878-8.255c-2.537,0-5.06,0.149-7.565,0.431c-12.037-15.342-28.695-24.67-48.909-26.761
			c-22.438-2.318-42.974,5.075-58.81,21.138c-11.199,11.356-19.979,26.73-26.104,45.691c-1.167,3.618-2.216,7.354-3.164,11.168
			c-6.986,9.093-12.546,20.473-16.564,33.951c-4.652,15.593-7.143,33.943-7.284,52.598c-39.245,9.649-75.256,29.839-104.562,59.146
			c-42.347,42.347-65.662,98.634-65.662,158.5v332.163l14.246,3.227c0.556,0.125,13.776,3.078,30.654,3.078
			c8.513,0,16.486-0.713,23.863-2.122c-3.657,5.709-3.845,11.975-2.357,16.822c5.2,16.901,26.91,16.901,35.086,16.901
			c19.611,0,42.072-4.566,60.688-12.265c-4.558,20.464-0.109,30.669,4.151,36.856c6.735,9.773,17.896,14.731,33.191,14.731
			c8.215,0,16.838-1.323,25.187-2.601c6.869-1.049,13.972-2.138,19.18-2.138s12.312,1.089,19.18,2.138
			c8.349,1.277,16.979,2.601,25.188,2.601h0.008c15.288,0,26.456-4.958,33.191-14.731c4.261-6.188,8.701-16.393,4.15-36.856
			c18.624,7.698,41.078,12.265,60.689,12.265c8.176,0,29.886,0,35.086-16.901c1.488-4.848,1.3-11.113-2.357-16.822
			C578.51,720.372,586.475,721.085,595.003,721.085L595.003,721.085z M499.048,147.921c5.874-23.597,7.189-50.045,3.603-72.57
			c-0.571-3.603-1.276-7.072-2.091-10.447c2.075,0.666,4.167,1.535,6.281,2.624c5.498,2.835,22.25,11.466,19.258,42.895
			c-1.668,17.52-9.194,38.211-20.66,56.757c-1.738,2.812-3.445,5.381-5.122,7.73c-9.21,12.962-17.089,19.11-19.939,20.167
			c-2.694,0.149-5.451,0.462-8.263,0.924c8.255-5.38,14.411-14.56,18.977-24.615C494.615,163.64,497.192,155.37,499.048,147.921z
			 M426.103,36.577c1.418,0,2.89,0.078,4.378,0.235c3.023,0.313,9.085,0.948,15.499,5.106c4.222,2.741,8.6,7.001,12.358,13.729
			c2.146,3.845,4.097,8.482,5.702,14.105c0.337,1.183,0.649,2.396,0.947,3.626c3.729,15.538,4.096,34.726,1.003,53.703
			c-1.003-5.099-2.186-10.033-3.587-14.7c-2.93-9.821-6.688-18.53-11.208-26.049c-3.227-5.365-6.837-10.142-10.839-14.27
			c-0.164-0.165-0.329-0.321-0.493-0.485c-4.448-4.503-9.352-8.216-14.638-11.098c-8.701-4.738-18.413-7.221-28.767-7.299
			C404.534,42.153,414.465,36.577,426.103,36.577z M360.174,144.93c1.551-12.672,4.48-24.153,8.623-33.316
			c2.389-5.271,5.78-11.513,11.035-15.977c4.112-3.493,9.359-5.897,16.165-5.897c2.718,0,5.185,0.392,7.433,1.073
			c6.492,1.974,11.145,6.438,14.575,11.395c2.161,3.109,3.837,6.415,5.192,9.406c1.676,3.704,3.148,7.8,4.417,12.194
			c3.007,10.393,4.832,22.485,5.341,35.314c0.204,5.067,0.204,10.244-0.023,15.483c-0.047,1.088-0.102,2.154-0.164,3.211
			c-0.298,4.958-0.775,9.445-1.355,13.479c-0.227,1.457-0.485,2.906-0.783,4.354c-0.846,4.151-1.997,8.239-3.603,12.187
			c-2.412,5.921-6.359,10.212-10.564,14.402c-2.694,2.687-5.49,5.326-8.067,8.333c-0.415,0.486-0.869,1.042-1.347,1.645
			c-4.362,5.498-10.77,15.061-11.051,15.522c-0.869-1.41-1.778-2.827-2.71-4.237c-6.908-10.432-15.483-20.645-25.563-27.474
			c-1.621-2.185-4.409-9.054-6.422-20.363c-0.486-2.749-0.932-5.749-1.3-9.014c-0.415-3.681-0.736-7.691-0.924-12.03
			c-0.228-5.24-0.228-10.417-0.032-15.483C359.234,154.273,359.61,149.519,360.174,144.93z M440.372,755.42
			c-5.428,0-12.656-1.104-19.65-2.178c-2.968-0.454-5.976-0.908-8.975-1.315c-5.318-0.713-10.636-1.245-15.742-1.245
			s-10.424,0.532-15.742,1.245c-3.007,0.399-6.007,0.861-8.975,1.315c-6.994,1.073-14.223,2.178-19.65,2.178
			c-1.128,0-2.021-0.047-2.718-0.11c0.079-2.913,0.956-9.147,5.412-20.824c0.195-0.517,0.383-1.042,0.579-1.559
			c6.461-17.395,11.239-37.938,14.763-59.028c2.804-16.744,4.816-33.818,6.266-49.936c2.412,2.357,4.785,4.715,7.127,7.064
			l12.938,12.93l12.938-12.938c2.342-2.342,4.723-4.699,7.127-7.064c1.448,16.109,3.461,33.191,6.265,49.936
			c3.532,21.083,8.31,41.626,14.771,59.021c0.195,0.517,0.384,1.042,0.579,1.559c4.457,11.677,5.334,17.903,5.412,20.824
			C442.393,755.373,441.5,755.42,440.372,755.42L440.372,755.42z M430.958,562.412c-6.297,4.73-12.226,9.562-17.872,14.45
			c-5.976,5.169-11.638,10.385-17.081,15.601c-5.443-5.216-11.113-10.432-17.081-15.601c-5.647-4.88-11.576-9.712-17.873-14.45
			c-5.701-4.284-11.701-8.489-18.076-12.57c-6.375-4.088-13.11-8.059-20.284-11.865c-8.819-4.675-13.894-10.604-13.236-15.468
			c0.399-2.991,2.914-5.662,5.976-6.352c1.41-0.312,2.749-0.61,4.018-0.893c22.705-4.996,31.617-8.865,50.328-35.658
			c10.142-14.536,22.696-15.758,25.352-15.852l0.086,0.141l1.527-0.141c2.279,0.055,15.146,1.011,25.508,15.859
			c18.711,26.793,27.623,30.662,50.327,35.658c1.27,0.282,2.608,0.572,4.018,0.893c3.062,0.689,5.577,3.36,5.977,6.352
			c0.649,4.864-4.426,10.793-13.244,15.468c-7.174,3.807-13.901,7.777-20.276,11.865C442.667,553.915,436.66,558.12,430.958,562.412
			z M551.091,666.129l-31.523-57.203l-2.78,65.254c-0.133,3.18-0.611,22.399,6.43,40.797c-10.33-1.418-22.266-4.276-33.441-9.172
			c-14.121-6.187-23.746-14.081-28.743-23.534c-5.929-29.369-8.951-62.153-10.479-88.781c10.714-8.239,22.517-16.095,35.893-23.19
			c23.042-12.218,35.142-31.898,32.361-52.646c-2.436-18.186-16.181-33.136-34.209-37.186c-1.473-0.328-2.859-0.634-4.183-0.924
			c-7.996-1.762-11.638-2.608-14.191-4.308c-3.188-2.122-7.377-7.072-14.003-16.564c-20.935-29.979-50.093-31.499-55.724-31.499
			c-0.188,0-0.36,0-0.517,0c-0.157,0-0.321,0-0.517,0c-5.631,0-34.789,1.52-55.723,31.499c-6.626,9.492-10.816,14.45-14.003,16.564
			c-2.553,1.699-6.195,2.546-14.191,4.308c-1.323,0.29-2.717,0.596-4.182,0.924c-18.021,4.058-31.766,19-34.201,37.186
			c-2.78,20.747,9.32,40.428,32.361,52.646c13.385,7.096,25.195,14.959,35.909,23.206c-0.266,4.66-0.58,9.508-0.955,14.496
			c-2.091,28.266-5.341,53.319-9.594,74.363c-5.012,9.414-14.614,17.285-28.696,23.448c-11.176,4.896-23.112,7.762-33.442,9.172
			c7.041-18.397,6.563-37.624,6.43-40.796l-2.772-65.255l-31.523,57.203c-8.365,15.179-28.492,18.366-43.905,18.366
			c-2.953,0-5.749-0.118-8.317-0.298V382.609c0-50.1,19.509-97.2,54.932-132.624c23.057-23.057,51.071-39.37,81.631-47.946
			c3.086,17.528,9.281,35.964,21.647,44.062c14.958,9.805,28.367,39.731,31.883,49.442l17.152,47.664
			c0,0,17.222-47.562,17.261-47.672c5.64-15.57,14.254-30.834,26.339-42.605c13.338-12.993,31.898-19.376,49.567-23.926
			c8.192-2.107,13.933-4.237,20.081-9.117c14.151,8.161,27.325,18.225,39.183,30.082c35.423,35.423,54.932,82.524,54.932,132.624
			v301.588c-2.561,0.18-5.364,0.297-8.31,0.297l0,0C579.583,684.495,559.455,681.307,551.091,666.129z"/>
		<path d="M252.636,351.901c-24.436,0-44.312,19.877-44.312,44.312c0,24.436,19.877,44.312,44.312,44.312
			c24.435,0,44.312-19.877,44.312-44.312C296.948,371.786,277.071,351.901,252.636,351.901z M252.636,403.936
			c-4.261,0-7.722-3.47-7.722-7.723c0-4.26,3.461-7.722,7.722-7.722c4.26,0,7.722,3.462,7.722,7.722
			C260.366,400.474,256.896,403.936,252.636,403.936z"/>
		<path d="M539.366,351.901c-24.436,0-44.312,19.877-44.312,44.312c0,24.436,19.877,44.312,44.312,44.312
			s44.312-19.877,44.312-44.312C583.671,371.786,563.794,351.901,539.366,351.901z M539.366,403.936
			c-4.261,0-7.723-3.47-7.723-7.723c0-4.26,3.462-7.722,7.723-7.722s7.723,3.462,7.723,7.722
			C547.089,400.474,543.619,403.936,539.366,403.936z"/>
		<path d="M367.474,516.604L367.474,516.604c0,0,16.541,0.188,18.859-9.853c0.689-2.984,0.125-6.861-2.506-11.92
			C383.818,494.832,360.73,501.653,367.474,516.604z"/>
		<path d="M408.184,494.832c-2.632,5.059-3.195,8.936-2.507,11.92c2.311,10.04,18.859,9.853,18.859,9.853l0,0
			C431.271,501.653,408.184,494.832,408.184,494.832z"/>
	</g>
</g>
<g>
</g>
<g>
</g>
<g>
</g>
<g>
</g>
<g>
</g>
<g>
</g>
<g>
</g>
<g>
</g>
<g>
</g>
<g>
</g>
<g>
</g>
<g>
</g>
<g>
</g>
<g>
</g>
<g>
</g>
</svg>
